<svg width="15" height="11" viewBox="0 0 15 11" fill="none" xmlns="http://www.w3.org/2000/svg">
<path d="M5.46401 10.427L4.32201 10.185L3.08601 9.07L1.54101 6.973L0.84201 5.239L4.52501 2.928L7.09201 1.328L6.93101 3.264L7.26701 4.245L8.41001 6.355L9.13601 6.933L7.01301 8.412L5.83001 8.99L6.20601 9.568L6.03101 10.388L5.46601 10.428L5.46401 10.427Z" fill="white"/>
<path d="M0.518005 5.159L0.881005 6.275L1.48601 7.35L2.4 8.735L3.327 9.797L4.16001 10.415L4.85901 10.751L5.67901 10.778L6.23 10.59L9.98001 8.292L10.706 7.674L10.881 7.244L10.908 6.747L10.867 6.398L10.719 6.049L10.141 6.318L9.308 6.788H9.17401L8.43501 6.049L9.06701 5.807L9.981 5.108V4.96L10.882 4.624L11.205 4.275L11.957 3.912L12.024 3.442L12.683 3.281L12.952 2.649L13.705 2.206L14.417 1.4L14.578 0.903L13.476 0.943L12.401 0.997L12.092 1.158L11.81 1.319L11.299 1.467L10.896 1.722L10.547 1.735L10.224 1.856L10.009 1.99L9.71301 2.259L9.32301 2.326L9.00001 2.554L8.67701 2.823L8.40801 2.904L7.80301 3.616L7.33301 3.777L7.21201 2.944L7.26601 2.057L7.42701 1.076V0.968L3.39501 3.32L1.63401 4.328L0.518005 5.161V5.159ZM1.15001 5.253L2.46701 4.447L4.039 3.587L5.06001 2.915L6.256 2.203L6.72601 1.88L6.64501 3.17L6.72601 3.654L6.874 3.977L6.96801 4.179L6.551 4.622L6.188 5.065L5.96001 5.697L5.81201 6.019L5.355 6.57L4.643 7.107L4.30701 7.497L4.13201 7.672L3.93001 7.847H3.62101L3.54001 7.995H3.24401L3.12301 8.022L3.15 8.264L3.44601 8.291H3.688L4.037 7.995L4.669 7.78L5.032 7.524V7.309L5.69101 6.758L6.06701 6.61H6.61801L7.14201 6.664L7.72001 6.691L8.01601 6.342L8.28501 6.49L8.728 6.907L8.822 7.055L8.21701 7.431L5.27401 9.03L5.05901 9.325L5.00501 9.621L5.26001 9.796L5.54201 9.971H5.74401L5.67701 10.146L5.47501 10.294L4.87001 10.24L4.19801 9.796L3.27101 8.976L2.58601 8.089L2.03501 7.108L1.63201 6.463L1.29601 5.831L1.14801 5.253H1.15001Z" fill="black"/>
<path d="M6.16299 9.204L8.99899 7.497L10.343 6.718L10.437 7.041L10.316 7.337L10.222 7.525H10.128L10.061 7.673L9.80599 7.646L9.77899 7.942H9.65799L9.53699 7.7L9.41599 7.727L9.44299 8.117H9.36199L9.22799 7.902L9.09399 7.929L9.12099 8.171L9.03999 8.265H8.90599L8.82499 8.359L8.74399 8.547L8.58299 8.588L8.39499 8.52L8.32799 8.708L8.28799 8.829L8.16699 8.883L8.11299 8.681L8.00499 8.6L7.96499 9.151H7.84399L7.77699 8.936H7.62899L7.68299 9.259L7.50799 9.3L7.42699 9.112H7.30599L7.29299 9.475L7.06499 9.502L6.97099 9.301L6.84999 9.328V9.745H6.67499L6.64799 9.503H6.55399L6.45999 9.946H6.31199L6.29899 9.355L6.16499 9.207L6.16299 9.204ZM6.28399 6.247L7.39899 6.234L7.65399 6.1L7.19699 6.006L7.02199 5.912L8.06999 5.831L8.09699 5.683H8.63499V5.508L7.90899 5.454L7.72099 5.4L8.75599 5.279L8.79599 5.131L9.62899 5.064L9.35999 4.983L8.98399 4.916L8.78199 4.903L8.56699 4.876L8.57999 4.795L9.89699 4.661L9.86999 4.513L10.555 4.5L10.528 4.325L9.51999 4.271L9.94999 4.137L10.945 4.003V3.882L11.563 3.828L11.469 3.653H10.501L10.676 3.572L11.751 3.411L11.778 3.169H12.141L12.1 2.967L11.334 3.115L11.697 2.954L12.087 2.793L12.625 2.645L12.047 2.659L12.49 2.498L12.826 2.35L13.256 1.759L12.45 2.243L11.859 2.592L9.82999 3.802L8.55299 4.595L7.59899 5.307L6.75199 5.952L6.28199 6.248L6.28399 6.247ZM6.48599 5.75L7.69599 4.742L9.12099 3.774L10.33 3.089L11.271 2.551L12.145 2.081L12.602 1.772L13.086 1.423L12.562 1.49L12.4 1.665H12.051L11.594 2.256H11.446L11.473 1.853L11.298 2.001L11.002 2.297L10.613 2.646L10.398 2.834L10.25 2.942L10.384 2.472L10.438 2.284L10.263 2.297L9.68499 3.036L9.44299 3.385L9.17399 3.479L9.24099 3.237L9.30799 2.968H9.18699L8.72999 3.707L8.43399 4.03L8.33999 4.124L8.21899 4.137L8.29999 3.814L8.46099 3.532L8.37999 3.438L8.21899 3.707L7.43899 4.648L7.35799 4.729L7.15599 4.81L7.41099 4.299H7.28999L6.81999 4.85L6.61799 5.132L6.49699 5.387L6.48299 5.75H6.48599Z" fill="white"/>
<path d="M3.327 4.83601L3.448 4.62101H3.69L3.744 4.41901L3.959 4.36501L4.255 4.21701L4.322 4.00201H4.43L4.793 3.88101L4.941 3.67901L5.506 3.50401L5.546 3.38301L5.949 3.26201L6.043 3.08701H6.218L6.231 3.38301L5.895 3.47701V3.67901L5.264 3.77301L5.089 3.92101L5.008 4.05501L4.699 4.12201L4.591 4.44501H4.309L4.161 4.76701H3.785L3.718 4.98201H3.234L3.153 5.27801H2.817V5.48001L2.32 5.50701L2.226 5.74901H1.742L1.621 5.54701L1.984 5.50701L2.172 5.33201L2.441 5.21101L2.522 5.03601L2.912 5.00901L3.006 4.83401H3.329L3.327 4.83601ZM2.306 6.54301L2.615 6.16701L2.937 5.89801L3.273 5.84401V5.60201H3.784V5.45401H3.838L3.892 5.36001L4.591 5.18601L4.86 4.86301L5.236 4.71501L5.33 4.54001L5.8 4.39201L6.082 4.27101V4.02901H6.337L6.35 4.41901L5.893 4.56701L5.745 4.74201L5.396 4.83601L5.208 5.10501L4.791 5.23901L4.724 5.40101L4.227 5.50801L3.837 5.60201L3.864 5.84401L3.743 5.97801H3.353L3.245 6.12601L2.963 6.27401L2.856 6.51601L2.708 6.66401L2.305 6.54301H2.306ZM2.79 7.60501L3.005 7.33601L3.247 7.08001L3.355 6.58301L3.449 6.57001L3.503 6.90601L3.866 6.66401L4.256 6.63701L4.431 6.57001L4.458 6.28801L4.821 6.19401L4.969 5.99201L5.399 5.89801L5.453 5.72301H5.682V5.95201L5.507 6.12701L5.279 6.27501L4.916 6.43601L4.728 6.75901L4.352 6.86701L4.204 7.04201H3.787V7.28401H3.33L3.128 7.49901L2.967 7.67401L2.792 7.60701L2.79 7.60501Z" fill="black"/>
<path d="M5.81401 9.701L5.80101 9.392L5.58601 9.284H5.38501L5.27701 9.392L5.26401 9.54L5.37101 9.634L5.50501 9.648L5.68001 9.541L5.81401 9.702V9.701Z" fill="white"/>
</svg>
